{
    "asset" : {
        "generator" : "Khronos glTF Blender I/O v3.4.50",
        "version" : "2.0"
    },
    "scene" : 0,
    "scenes" : [
        {
            "name" : "Scene",
            "nodes" : [
                0,
                1,
                2,
                3,
                4
            ]
        }
    ],
    "nodes" : [
        {
            "name" : "Empty",
            "rotation" : [
                0.70710688829422,
                0,
                0,
                0.7071066498756409
            ]
        },
        {
            "mesh" : 0,
            "name" : "Sphere.001",
            "scale" : [
                1.6303634643554688,
                2.0119640827178955,
                1.6303634643554688
            ]
        },
        {
            "mesh" : 1,
            "name" : "Sphere.002",
            "scale" : [
                1.6749897003173828,
                2.087538003921509,
                1.6749897003173828
            ]
        },
        {
            "mesh" : 2,
            "name" : "Sphere.003",
            "scale" : [
                1.6749897003173828,
                2.087538003921509,
                1.6749897003173828
            ]
        },
        {
            "mesh" : 3,
            "name" : "Sphere.004",
            "scale" : [
                1.6749897003173828,
                2.087538003921509,
                1.6749897003173828
            ]
        }
    ],
    "materials" : [
        {
            "doubleSided" : true,
            "name" : "Material.003",
            "pbrMetallicRoughness" : {
                "baseColorFactor" : [
                    0.8000000715255737,
                    0,
                    0.716168224811554,
                    1
                ],
                "metallicFactor" : 0,
                "roughnessFactor" : 0.5
            }
        },
        {
            "doubleSided" : true,
            "name" : "Material.004",
            "pbrMetallicRoughness" : {
                "baseColorTexture" : {
                    "index" : 0
                },
                "metallicFactor" : 0,
                "roughnessFactor" : 0.5
            }
        },
        {
            "doubleSided" : true,
            "name" : "Material.001",
            "pbrMetallicRoughness" : {
                "baseColorFactor" : [
                    0,
                    0.024526288732886314,
                    0.8000000715255737,
                    1
                ],
                "metallicFactor" : 0,
                "roughnessFactor" : 0.5
            }
        },
        {
            "doubleSided" : true,
            "name" : "Material.002",
            "pbrMetallicRoughness" : {
                "baseColorFactor" : [
                    0.8000000715255737,
                    0.00171067810151726,
                    0.007174722850322723,
                    1
                ],
                "metallicFactor" : 0,
                "roughnessFactor" : 0.5
            }
        }
    ],
    "meshes" : [
        {
            "name" : "Sphere.001",
            "primitives" : [
                {
                    "attributes" : {
                        "POSITION" : 0,
                        "TEXCOORD_0" : 1,
                        "NORMAL" : 2
                    },
                    "indices" : 3
                }
            ]
        },
        {
            "name" : "Sphere.002",
            "primitives" : [
                {
                    "attributes" : {
                        "POSITION" : 4,
                        "TEXCOORD_0" : 5,
                        "NORMAL" : 6
                    },
                    "indices" : 7,
                    "material" : 0
                },
                {
                    "attributes" : {
                        "POSITION" : 8,
                        "TEXCOORD_0" : 9,
                        "NORMAL" : 10
                    },
                    "indices" : 11,
                    "material" : 1
                }
            ]
        },
        {
            "name" : "Sphere.003",
            "primitives" : [
                {
                    "attributes" : {
                        "POSITION" : 12,
                        "TEXCOORD_0" : 13,
                        "NORMAL" : 14
                    },
                    "indices" : 3,
                    "material" : 2
                }
            ]
        },
        {
            "name" : "Sphere.004",
            "primitives" : [
                {
                    "attributes" : {
                        "POSITION" : 15,
                        "TEXCOORD_0" : 16,
                        "NORMAL" : 17
                    },
                    "indices" : 3,
                    "material" : 3
                }
            ]
        }
    ],
    "textures" : [
        {
            "sampler" : 0,
            "source" : 0
        }
    ],
    "images" : [
        {
            "mimeType" : "image/png",
            "name" : "SSE_pic",
            "uri" : "SSE_pic.png"
        }
    ],
    "accessors" : [
        {
            "bufferView" : 0,
            "componentType" : 5126,
            "count" : 1087,
            "max" : [
                0.9999997019767761,
                1,
                0.9999993443489075
            ],
            "min" : [
                -0.9999990463256836,
                -1,
                -0.9999988079071045
            ],
            "type" : "VEC3"
        },
        {
            "bufferView" : 1,
            "componentType" : 5126,
            "count" : 1087,
            "type" : "VEC2"
        },
        {
            "bufferView" : 2,
            "componentType" : 5126,
            "count" : 1087,
            "type" : "VEC3"
        },
        {
            "bufferView" : 3,
            "componentType" : 5123,
            "count" : 5952,
            "type" : "SCALAR"
        },
        {
            "bufferView" : 4,
            "componentType" : 5126,
            "count" : 980,
            "max" : [
                0.9999997019767761,
                1,
                0.9999993443489075
            ],
            "min" : [
                -0.9999990463256836,
                -1,
                -0.9999988079071045
            ],
            "type" : "VEC3"
        },
        {
            "bufferView" : 5,
            "componentType" : 5126,
            "count" : 980,
            "type" : "VEC2"
        },
        {
            "bufferView" : 6,
            "componentType" : 5126,
            "count" : 980,
            "type" : "VEC3"
        },
        {
            "bufferView" : 7,
            "componentType" : 5123,
            "count" : 5325,
            "type" : "SCALAR"
        },
        {
            "bufferView" : 8,
            "componentType" : 5126,
            "count" : 134,
            "max" : [
                0.038060203194618225,
                1,
                0.9807849526405334
            ],
            "min" : [
                -0.9569398760795593,
                0.19509032368659973,
                -0.019122203812003136
            ],
            "type" : "VEC3"
        },
        {
            "bufferView" : 9,
            "componentType" : 5126,
            "count" : 134,
            "type" : "VEC2"
        },
        {
            "bufferView" : 10,
            "componentType" : 5126,
            "count" : 134,
            "type" : "VEC3"
        },
        {
            "bufferView" : 11,
            "componentType" : 5123,
            "count" : 627,
            "type" : "SCALAR"
        },
        {
            "bufferView" : 12,
            "componentType" : 5126,
            "count" : 1087,
            "max" : [
                0.9999997019767761,
                1,
                0.9999993443489075
            ],
            "min" : [
                -0.9999990463256836,
                -1,
                -0.9999988079071045
            ],
            "type" : "VEC3"
        },
        {
            "bufferView" : 13,
            "componentType" : 5126,
            "count" : 1087,
            "type" : "VEC2"
        },
        {
            "bufferView" : 14,
            "componentType" : 5126,
            "count" : 1087,
            "type" : "VEC3"
        },
        {
            "bufferView" : 15,
            "componentType" : 5126,
            "count" : 1087,
            "max" : [
                0.9999997019767761,
                1,
                0.9999993443489075
            ],
            "min" : [
                -0.9999990463256836,
                -1,
                -0.9999988079071045
            ],
            "type" : "VEC3"
        },
        {
            "bufferView" : 16,
            "componentType" : 5126,
            "count" : 1087,
            "type" : "VEC2"
        },
        {
            "bufferView" : 17,
            "componentType" : 5126,
            "count" : 1087,
            "type" : "VEC3"
        }
    ],
    "bufferViews" : [
        {
            "buffer" : 0,
            "byteLength" : 13044,
            "byteOffset" : 0,
            "target" : 34962
        },
        {
            "buffer" : 0,
            "byteLength" : 8696,
            "byteOffset" : 13044,
            "target" : 34962
        },
        {
            "buffer" : 0,
            "byteLength" : 13044,
            "byteOffset" : 21740,
            "target" : 34962
        },
        {
            "buffer" : 0,
            "byteLength" : 11904,
            "byteOffset" : 34784,
            "target" : 34963
        },
        {
            "buffer" : 0,
            "byteLength" : 11760,
            "byteOffset" : 46688,
            "target" : 34962
        },
        {
            "buffer" : 0,
            "byteLength" : 7840,
            "byteOffset" : 58448,
            "target" : 34962
        },
        {
            "buffer" : 0,
            "byteLength" : 11760,
            "byteOffset" : 66288,
            "target" : 34962
        },
        {
            "buffer" : 0,
            "byteLength" : 10650,
            "byteOffset" : 78048,
            "target" : 34963
        },
        {
            "buffer" : 0,
            "byteLength" : 1608,
            "byteOffset" : 88700,
            "target" : 34962
        },
        {
            "buffer" : 0,
            "byteLength" : 1072,
            "byteOffset" : 90308,
            "target" : 34962
        },
        {
            "buffer" : 0,
            "byteLength" : 1608,
            "byteOffset" : 91380,
            "target" : 34962
        },
        {
            "buffer" : 0,
            "byteLength" : 1254,
            "byteOffset" : 92988,
            "target" : 34963
        },
        {
            "buffer" : 0,
            "byteLength" : 13044,
            "byteOffset" : 94244,
            "target" : 34962
        },
        {
            "buffer" : 0,
            "byteLength" : 8696,
            "byteOffset" : 107288,
            "target" : 34962
        },
        {
            "buffer" : 0,
            "byteLength" : 13044,
            "byteOffset" : 115984,
            "target" : 34962
        },
        {
            "buffer" : 0,
            "byteLength" : 13044,
            "byteOffset" : 129028,
            "target" : 34962
        },
        {
            "buffer" : 0,
            "byteLength" : 8696,
            "byteOffset" : 142072,
            "target" : 34962
        },
        {
            "buffer" : 0,
            "byteLength" : 13044,
            "byteOffset" : 150768,
            "target" : 34962
        }
    ],
    "samplers" : [
        {
            "magFilter" : 9729,
            "minFilter" : 9987
        }
    ],
    "buffers" : [
        {
            "byteLength" : 163812,
            "uri" : "smooth_sphere_5.bin"
        }
    ]
}
