{
    "asset" : {
        "generator" : "Khronos glTF Blender I/O v3.4.50",
        "version" : "2.0"
    },
    "scene" : 0,
    "scenes" : [
        {
            "name" : "Scene",
            "nodes" : [
                0,
                1,
                2,
                3
            ]
        }
    ],
    "nodes" : [
        {
            "mesh" : 0,
            "name" : "Sphere.001"
        },
        {
            "mesh" : 1,
            "name" : "Sphere.002"
        },
        {
            "mesh" : 2,
            "name" : "Sphere.003"
        },
        {
            "mesh" : 3,
            "name" : "Sphere.004"
        }
    ],
    "materials" : [
        {
            "doubleSided" : true,
            "name" : "Material.005",
            "pbrMetallicRoughness" : {
                "baseColorFactor" : [
                    0.0032304448541253805,
                    0.4598436951637268,
                    0.8000000715255737,
                    1
                ],
                "metallicFactor" : 0,
                "roughnessFactor" : 0.5
            }
        },
        {
            "doubleSided" : true,
            "name" : "Material",
            "pbrMetallicRoughness" : {
                "baseColorTexture" : {
                    "index" : 0
                },
                "metallicFactor" : 0,
                "roughnessFactor" : 0
            }
        }
    ],
    "meshes" : [
        {
            "name" : "Sphere.004",
            "primitives" : [
                {
                    "attributes" : {
                        "POSITION" : 0,
                        "TEXCOORD_0" : 1,
                        "NORMAL" : 2
                    },
                    "indices" : 3,
                    "material" : 0
                }
            ]
        },
        {
            "name" : "Sphere.005",
            "primitives" : [
                {
                    "attributes" : {
                        "POSITION" : 4,
                        "TEXCOORD_0" : 5,
                        "NORMAL" : 6
                    },
                    "indices" : 7,
                    "material" : 0
                }
            ]
        },
        {
            "name" : "Sphere.003",
            "primitives" : [
                {
                    "attributes" : {
                        "POSITION" : 8,
                        "TEXCOORD_0" : 9,
                        "NORMAL" : 10
                    },
                    "indices" : 11,
                    "material" : 1
                }
            ]
        },
        {
            "name" : "Sphere.006",
            "primitives" : [
                {
                    "attributes" : {
                        "POSITION" : 12,
                        "TEXCOORD_0" : 13,
                        "NORMAL" : 14
                    },
                    "indices" : 7,
                    "material" : 0
                }
            ]
        }
    ],
    "textures" : [
        {
            "sampler" : 0,
            "source" : 0
        }
    ],
    "images" : [
        {
            "mimeType" : "image/png",
            "name" : "SSE_pic",
            "uri" : "SSE_pic.png"
        }
    ],
    "accessors" : [
        {
            "bufferView" : 0,
            "componentType" : 5126,
            "count" : 2192,
            "max" : [
                0.9999995827674866,
                1,
                0.9999992251396179
            ],
            "min" : [
                -0.9999986886978149,
                0,
                -0.9999983310699463
            ],
            "type" : "VEC3"
        },
        {
            "bufferView" : 1,
            "componentType" : 5126,
            "count" : 2192,
            "type" : "VEC2"
        },
        {
            "bufferView" : 2,
            "componentType" : 5126,
            "count" : 2192,
            "type" : "VEC3"
        },
        {
            "bufferView" : 3,
            "componentType" : 5123,
            "count" : 11904,
            "type" : "SCALAR"
        },
        {
            "bufferView" : 4,
            "componentType" : 5126,
            "count" : 2192,
            "max" : [
                0.9999995827674866,
                0,
                0.9999992251396179
            ],
            "min" : [
                -0.9999986886978149,
                -1,
                -0.9999983310699463
            ],
            "type" : "VEC3"
        },
        {
            "bufferView" : 5,
            "componentType" : 5126,
            "count" : 2192,
            "type" : "VEC2"
        },
        {
            "bufferView" : 6,
            "componentType" : 5126,
            "count" : 2192,
            "type" : "VEC3"
        },
        {
            "bufferView" : 7,
            "componentType" : 5123,
            "count" : 11904,
            "type" : "SCALAR"
        },
        {
            "bufferView" : 8,
            "componentType" : 5126,
            "count" : 2049,
            "max" : [
                0.9999995827674866,
                1,
                0.9999992251396179
            ],
            "min" : [
                -0.9999986886978149,
                0,
                -0.9999983310699463
            ],
            "type" : "VEC3"
        },
        {
            "bufferView" : 9,
            "componentType" : 5126,
            "count" : 2049,
            "type" : "VEC2"
        },
        {
            "bufferView" : 10,
            "componentType" : 5126,
            "count" : 2049,
            "type" : "VEC3"
        },
        {
            "bufferView" : 11,
            "componentType" : 5123,
            "count" : 11904,
            "type" : "SCALAR"
        },
        {
            "bufferView" : 12,
            "componentType" : 5126,
            "count" : 2192,
            "max" : [
                0.9999995827674866,
                0,
                0.9999992251396179
            ],
            "min" : [
                -0.9999986886978149,
                -1,
                -0.9999983310699463
            ],
            "type" : "VEC3"
        },
        {
            "bufferView" : 13,
            "componentType" : 5126,
            "count" : 2192,
            "type" : "VEC2"
        },
        {
            "bufferView" : 14,
            "componentType" : 5126,
            "count" : 2192,
            "type" : "VEC3"
        }
    ],
    "bufferViews" : [
        {
            "buffer" : 0,
            "byteLength" : 26304,
            "byteOffset" : 0,
            "target" : 34962
        },
        {
            "buffer" : 0,
            "byteLength" : 17536,
            "byteOffset" : 26304,
            "target" : 34962
        },
        {
            "buffer" : 0,
            "byteLength" : 26304,
            "byteOffset" : 43840,
            "target" : 34962
        },
        {
            "buffer" : 0,
            "byteLength" : 23808,
            "byteOffset" : 70144,
            "target" : 34963
        },
        {
            "buffer" : 0,
            "byteLength" : 26304,
            "byteOffset" : 93952,
            "target" : 34962
        },
        {
            "buffer" : 0,
            "byteLength" : 17536,
            "byteOffset" : 120256,
            "target" : 34962
        },
        {
            "buffer" : 0,
            "byteLength" : 26304,
            "byteOffset" : 137792,
            "target" : 34962
        },
        {
            "buffer" : 0,
            "byteLength" : 23808,
            "byteOffset" : 164096,
            "target" : 34963
        },
        {
            "buffer" : 0,
            "byteLength" : 24588,
            "byteOffset" : 187904,
            "target" : 34962
        },
        {
            "buffer" : 0,
            "byteLength" : 16392,
            "byteOffset" : 212492,
            "target" : 34962
        },
        {
            "buffer" : 0,
            "byteLength" : 24588,
            "byteOffset" : 228884,
            "target" : 34962
        },
        {
            "buffer" : 0,
            "byteLength" : 23808,
            "byteOffset" : 253472,
            "target" : 34963
        },
        {
            "buffer" : 0,
            "byteLength" : 26304,
            "byteOffset" : 277280,
            "target" : 34962
        },
        {
            "buffer" : 0,
            "byteLength" : 17536,
            "byteOffset" : 303584,
            "target" : 34962
        },
        {
            "buffer" : 0,
            "byteLength" : 26304,
            "byteOffset" : 321120,
            "target" : 34962
        }
    ],
    "samplers" : [
        {
            "magFilter" : 9729,
            "minFilter" : 9987
        }
    ],
    "buffers" : [
        {
            "byteLength" : 347424,
            "uri" : "smooth_sphere.bin"
        }
    ]
}
